<?xml version="1.0" encoding="UTF-8" standalone="no"?>
<!-- Created with Inkscape (http://www.inkscape.org/) -->

<svg
   xmlns:dc="http://purl.org/dc/elements/1.1/"
   xmlns:cc="http://creativecommons.org/ns#"
   xmlns:rdf="http://www.w3.org/1999/02/22-rdf-syntax-ns#"
   xmlns:svg="http://www.w3.org/2000/svg"
   xmlns="http://www.w3.org/2000/svg"
   xmlns:xlink="http://www.w3.org/1999/xlink"
   xmlns:sodipodi="http://sodipodi.sourceforge.net/DTD/sodipodi-0.dtd"
   xmlns:inkscape="http://www.inkscape.org/namespaces/inkscape"
   width="24"
   height="24"
   id="svg2837"
   version="1.1"
   inkscape:version="0.47 r22583"
   sodipodi:docname="redshiftIconlight.svg"
   inkscape:export-filename="/home/joern/Desktop/redshiftIconlight.png"
   inkscape:export-xdpi="90"
   inkscape:export-ydpi="90">
  <defs
     id="defs2839">
    <inkscape:perspective
       sodipodi:type="inkscape:persp3d"
       inkscape:vp_x="0 : 526.18109 : 1"
       inkscape:vp_y="0 : 1000 : 0"
       inkscape:vp_z="744.09448 : 526.18109 : 1"
       inkscape:persp3d-origin="372.04724 : 350.78739 : 1"
       id="perspective2845" />
    <inkscape:perspective
       id="perspective7076"
       inkscape:persp3d-origin="0.5 : 0.33333333 : 1"
       inkscape:vp_z="1 : 0.5 : 1"
       inkscape:vp_y="0 : 1000 : 0"
       inkscape:vp_x="0 : 0.5 : 1"
       sodipodi:type="inkscape:persp3d" />
    <inkscape:perspective
       id="perspective7107"
       inkscape:persp3d-origin="0.5 : 0.33333333 : 1"
       inkscape:vp_z="1 : 0.5 : 1"
       inkscape:vp_y="0 : 1000 : 0"
       inkscape:vp_x="0 : 0.5 : 1"
       sodipodi:type="inkscape:persp3d" />
    <inkscape:perspective
       id="perspective7107-0"
       inkscape:persp3d-origin="0.5 : 0.33333333 : 1"
       inkscape:vp_z="1 : 0.5 : 1"
       inkscape:vp_y="0 : 1000 : 0"
       inkscape:vp_x="0 : 0.5 : 1"
       sodipodi:type="inkscape:persp3d" />
    <inkscape:perspective
       id="perspective7164"
       inkscape:persp3d-origin="0.5 : 0.33333333 : 1"
       inkscape:vp_z="1 : 0.5 : 1"
       inkscape:vp_y="0 : 1000 : 0"
       inkscape:vp_x="0 : 0.5 : 1"
       sodipodi:type="inkscape:persp3d" />
    <inkscape:perspective
       id="perspective7202"
       inkscape:persp3d-origin="0.5 : 0.33333333 : 1"
       inkscape:vp_z="1 : 0.5 : 1"
       inkscape:vp_y="0 : 1000 : 0"
       inkscape:vp_x="0 : 0.5 : 1"
       sodipodi:type="inkscape:persp3d" />
    <radialGradient
       inkscape:collect="always"
       xlink:href="#linearGradient7186-2"
       id="radialGradient7192-2"
       cx="4.0879612"
       cy="15.890368"
       fx="4.6574459"
       fy="16.146029"
       r="0.66291261"
       gradientTransform="matrix(2.8333333,0.9,-0.43392852,1.3660713,-0.59931111,-9.4961718)"
       gradientUnits="userSpaceOnUse" />
    <linearGradient
       inkscape:collect="always"
       id="linearGradient7186-2">
      <stop
         style="stop-color:#eae3d0;stop-opacity:0.38275862"
         offset="0"
         id="stop7188-4" />
      <stop
         style="stop-color:#eae3d0;stop-opacity:0;"
         offset="1"
         id="stop7190-9" />
    </linearGradient>
    <inkscape:perspective
       id="perspective7202-9"
       inkscape:persp3d-origin="0.5 : 0.33333333 : 1"
       inkscape:vp_z="1 : 0.5 : 1"
       inkscape:vp_y="0 : 1000 : 0"
       inkscape:vp_x="0 : 0.5 : 1"
       sodipodi:type="inkscape:persp3d" />
    <radialGradient
       inkscape:collect="always"
       xlink:href="#linearGradient7186-4"
       id="radialGradient7192-4"
       cx="4.0879612"
       cy="15.890368"
       fx="4.6574459"
       fy="16.146029"
       r="0.66291261"
       gradientTransform="matrix(2.8333333,0.9,-0.43392852,1.3660713,-0.59931111,-9.4961718)"
       gradientUnits="userSpaceOnUse" />
    <linearGradient
       inkscape:collect="always"
       id="linearGradient7186-4">
      <stop
         style="stop-color:#eae3d0;stop-opacity:0.38275862"
         offset="0"
         id="stop7188-8" />
      <stop
         style="stop-color:#eae3d0;stop-opacity:0;"
         offset="1"
         id="stop7190-7" />
    </linearGradient>
    <inkscape:perspective
       id="perspective7202-2"
       inkscape:persp3d-origin="0.5 : 0.33333333 : 1"
       inkscape:vp_z="1 : 0.5 : 1"
       inkscape:vp_y="0 : 1000 : 0"
       inkscape:vp_x="0 : 0.5 : 1"
       sodipodi:type="inkscape:persp3d" />
    <radialGradient
       inkscape:collect="always"
       xlink:href="#linearGradient7186-5"
       id="radialGradient7192-1"
       cx="4.0879612"
       cy="15.890368"
       fx="4.6574459"
       fy="16.146029"
       r="0.66291261"
       gradientTransform="matrix(2.8333333,0.9,-0.43392852,1.3660713,-0.59931111,-9.4961718)"
       gradientUnits="userSpaceOnUse" />
    <linearGradient
       inkscape:collect="always"
       id="linearGradient7186-5">
      <stop
         style="stop-color:#eae3d0;stop-opacity:0.38275862"
         offset="0"
         id="stop7188-5" />
      <stop
         style="stop-color:#eae3d0;stop-opacity:0;"
         offset="1"
         id="stop7190-4" />
    </linearGradient>
    <inkscape:perspective
       id="perspective7202-90"
       inkscape:persp3d-origin="0.5 : 0.33333333 : 1"
       inkscape:vp_z="1 : 0.5 : 1"
       inkscape:vp_y="0 : 1000 : 0"
       inkscape:vp_x="0 : 0.5 : 1"
       sodipodi:type="inkscape:persp3d" />
    <radialGradient
       inkscape:collect="always"
       xlink:href="#linearGradient7186-9"
       id="radialGradient7192-8"
       cx="4.0879612"
       cy="15.890368"
       fx="4.6574459"
       fy="16.146029"
       r="0.66291261"
       gradientTransform="matrix(2.8333333,0.9,-0.43392852,1.3660713,-0.59931111,-9.4961718)"
       gradientUnits="userSpaceOnUse" />
    <linearGradient
       inkscape:collect="always"
       id="linearGradient7186-9">
      <stop
         style="stop-color:#eae3d0;stop-opacity:0.38275862"
         offset="0"
         id="stop7188-88" />
      <stop
         style="stop-color:#eae3d0;stop-opacity:0;"
         offset="1"
         id="stop7190-1" />
    </linearGradient>
    <inkscape:perspective
       id="perspective7369"
       inkscape:persp3d-origin="0.5 : 0.33333333 : 1"
       inkscape:vp_z="1 : 0.5 : 1"
       inkscape:vp_y="0 : 1000 : 0"
       inkscape:vp_x="0 : 0.5 : 1"
       sodipodi:type="inkscape:persp3d" />
    <inkscape:perspective
       id="perspective7369-8"
       inkscape:persp3d-origin="0.5 : 0.33333333 : 1"
       inkscape:vp_z="1 : 0.5 : 1"
       inkscape:vp_y="0 : 1000 : 0"
       inkscape:vp_x="0 : 0.5 : 1"
       sodipodi:type="inkscape:persp3d" />
    <inkscape:perspective
       id="perspective7369-0"
       inkscape:persp3d-origin="0.5 : 0.33333333 : 1"
       inkscape:vp_z="1 : 0.5 : 1"
       inkscape:vp_y="0 : 1000 : 0"
       inkscape:vp_x="0 : 0.5 : 1"
       sodipodi:type="inkscape:persp3d" />
    <inkscape:perspective
       id="perspective7369-5"
       inkscape:persp3d-origin="0.5 : 0.33333333 : 1"
       inkscape:vp_z="1 : 0.5 : 1"
       inkscape:vp_y="0 : 1000 : 0"
       inkscape:vp_x="0 : 0.5 : 1"
       sodipodi:type="inkscape:persp3d" />
    <inkscape:perspective
       id="perspective7369-51"
       inkscape:persp3d-origin="0.5 : 0.33333333 : 1"
       inkscape:vp_z="1 : 0.5 : 1"
       inkscape:vp_y="0 : 1000 : 0"
       inkscape:vp_x="0 : 0.5 : 1"
       sodipodi:type="inkscape:persp3d" />
    <inkscape:perspective
       id="perspective7369-9"
       inkscape:persp3d-origin="0.5 : 0.33333333 : 1"
       inkscape:vp_z="1 : 0.5 : 1"
       inkscape:vp_y="0 : 1000 : 0"
       inkscape:vp_x="0 : 0.5 : 1"
       sodipodi:type="inkscape:persp3d" />
    <inkscape:perspective
       id="perspective7369-93"
       inkscape:persp3d-origin="0.5 : 0.33333333 : 1"
       inkscape:vp_z="1 : 0.5 : 1"
       inkscape:vp_y="0 : 1000 : 0"
       inkscape:vp_x="0 : 0.5 : 1"
       sodipodi:type="inkscape:persp3d" />
    <inkscape:perspective
       id="perspective7369-3"
       inkscape:persp3d-origin="0.5 : 0.33333333 : 1"
       inkscape:vp_z="1 : 0.5 : 1"
       inkscape:vp_y="0 : 1000 : 0"
       inkscape:vp_x="0 : 0.5 : 1"
       sodipodi:type="inkscape:persp3d" />
    <inkscape:perspective
       id="perspective7369-84"
       inkscape:persp3d-origin="0.5 : 0.33333333 : 1"
       inkscape:vp_z="1 : 0.5 : 1"
       inkscape:vp_y="0 : 1000 : 0"
       inkscape:vp_x="0 : 0.5 : 1"
       sodipodi:type="inkscape:persp3d" />
    <inkscape:perspective
       id="perspective7667"
       inkscape:persp3d-origin="0.5 : 0.33333333 : 1"
       inkscape:vp_z="1 : 0.5 : 1"
       inkscape:vp_y="0 : 1000 : 0"
       inkscape:vp_x="0 : 0.5 : 1"
       sodipodi:type="inkscape:persp3d" />
    <inkscape:perspective
       id="perspective7691"
       inkscape:persp3d-origin="0.5 : 0.33333333 : 1"
       inkscape:vp_z="1 : 0.5 : 1"
       inkscape:vp_y="0 : 1000 : 0"
       inkscape:vp_x="0 : 0.5 : 1"
       sodipodi:type="inkscape:persp3d" />
    <inkscape:perspective
       id="perspective7757"
       inkscape:persp3d-origin="0.5 : 0.33333333 : 1"
       inkscape:vp_z="1 : 0.5 : 1"
       inkscape:vp_y="0 : 1000 : 0"
       inkscape:vp_x="0 : 0.5 : 1"
       sodipodi:type="inkscape:persp3d" />
    <inkscape:perspective
       id="perspective7782"
       inkscape:persp3d-origin="0.5 : 0.33333333 : 1"
       inkscape:vp_z="1 : 0.5 : 1"
       inkscape:vp_y="0 : 1000 : 0"
       inkscape:vp_x="0 : 0.5 : 1"
       sodipodi:type="inkscape:persp3d" />
    <inkscape:perspective
       id="perspective7810"
       inkscape:persp3d-origin="0.5 : 0.33333333 : 1"
       inkscape:vp_z="1 : 0.5 : 1"
       inkscape:vp_y="0 : 1000 : 0"
       inkscape:vp_x="0 : 0.5 : 1"
       sodipodi:type="inkscape:persp3d" />
    <inkscape:perspective
       id="perspective7810-2"
       inkscape:persp3d-origin="0.5 : 0.33333333 : 1"
       inkscape:vp_z="1 : 0.5 : 1"
       inkscape:vp_y="0 : 1000 : 0"
       inkscape:vp_x="0 : 0.5 : 1"
       sodipodi:type="inkscape:persp3d" />
    <inkscape:perspective
       id="perspective7810-28"
       inkscape:persp3d-origin="0.5 : 0.33333333 : 1"
       inkscape:vp_z="1 : 0.5 : 1"
       inkscape:vp_y="0 : 1000 : 0"
       inkscape:vp_x="0 : 0.5 : 1"
       sodipodi:type="inkscape:persp3d" />
    <inkscape:perspective
       id="perspective7883"
       inkscape:persp3d-origin="0.5 : 0.33333333 : 1"
       inkscape:vp_z="1 : 0.5 : 1"
       inkscape:vp_y="0 : 1000 : 0"
       inkscape:vp_x="0 : 0.5 : 1"
       sodipodi:type="inkscape:persp3d" />
  </defs>
  <sodipodi:namedview
     id="base"
     pagecolor="#ffffff"
     bordercolor="#666666"
     borderopacity="1.0"
     inkscape:pageopacity="0.0"
     inkscape:pageshadow="2"
     inkscape:zoom="8"
     inkscape:cx="49.496586"
     inkscape:cy="1.9672137"
     inkscape:document-units="px"
     inkscape:current-layer="layer5"
     showgrid="false"
     showguides="false"
     inkscape:guide-bbox="true"
     inkscape:window-width="1440"
     inkscape:window-height="848"
     inkscape:window-x="0"
     inkscape:window-y="24"
     inkscape:window-maximized="1"
     inkscape:snap-global="false">
    <sodipodi:guide
       position="0,0"
       orientation="0,24"
       id="guide2847" />
    <sodipodi:guide
       position="24,0"
       orientation="-24,0"
       id="guide2849" />
    <sodipodi:guide
       position="24,24"
       orientation="0,-24"
       id="guide2851" />
    <sodipodi:guide
       position="0,24"
       orientation="24,0"
       id="guide2853" />
    <inkscape:grid
       type="xygrid"
       id="grid7095"
       empspacing="5"
       visible="true"
       enabled="true"
       snapvisiblegridlinesonly="true" />
    <sodipodi:guide
       orientation="0,1"
       position="-4.6845824,12.020815"
       id="guide7849" />
    <sodipodi:guide
       orientation="0,1"
       position="-5.08233,17.987029"
       id="guide7867" />
    <sodipodi:guide
       orientation="1,0"
       position="6.0104077,18.870912"
       id="guide7869" />
    <sodipodi:guide
       orientation="1,0"
       position="17.987029,20.019961"
       id="guide7871" />
    <sodipodi:guide
       orientation="0,1"
       position="9.1923882,6.0104077"
       id="guide7873" />
  </sodipodi:namedview>
  <metadata
     id="metadata2842">
    <rdf:RDF>
      <cc:Work
         rdf:about="">
        <dc:format>image/svg+xml</dc:format>
        <dc:type
           rdf:resource="http://purl.org/dc/dcmitype/StillImage" />
        <dc:title />
      </cc:Work>
    </rdf:RDF>
  </metadata>
  <g
     inkscape:label="Ebene 1"
     inkscape:groupmode="layer"
     id="layer1"
     transform="translate(0,-1028.3622)" />
  <g
     inkscape:groupmode="layer"
     id="layer4"
     inkscape:label="Ebene"
     style="display:inline" />
  <g
     inkscape:groupmode="layer"
     id="layer5"
     inkscape:label="Ebene#1"
     style="display:inline">
    <path
       style="opacity:0.6;fill:#eae3d0;fill-opacity:1;stroke:#eae3d0;stroke-width:0.80000001;stroke-linecap:round;stroke-linejoin:miter;stroke-miterlimit:4;stroke-opacity:1;stroke-dasharray:none;display:inline"
       d="m 11.510863,1.2668107 c -0.212123,0 -0.306981,0.1387472 -0.345273,0.2014092 -0.03829,0.062662 -0.04233,0.1226004 -0.05754,0.1726365 -0.03043,0.100072 -0.06871,0.2142696 -0.08632,0.345273 -0.03522,0.2620066 -0.05755,0.5978084 -0.05755,0.9782734 0,0.380465 0.02233,0.7162668 0.05755,0.9782734 0.0176,0.1310034 0.05589,0.245201 0.08632,0.345273 0.01521,0.050036 0.01925,0.1099745 0.05754,0.1726365 0.03829,0.062662 0.13315,0.2014092 0.345273,0.2014092 l 0.633001,0 0.460364,0 c 0.212123,0 0.306981,-0.1387472 0.345273,-0.2014092 0.03829,-0.062662 0.04233,-0.1226004 0.05755,-0.1726365 0.03043,-0.100072 0.06871,-0.2142696 0.08632,-0.345273 0.03522,-0.2620066 0.05755,-0.5978084 0.05755,-0.9782734 0,-0.380465 -0.02233,-0.7162668 -0.05755,-0.9782734 -0.01761,-0.1310034 -0.05589,-0.245201 -0.08632,-0.345273 -0.01522,-0.050036 -0.01925,-0.1099745 -0.05755,-0.1726365 -0.03829,-0.062662 -0.13315,-0.2014092 -0.345273,-0.2014092 l -1.093365,0 z m 0.633001,3.3951842 c -1.875109,0 -3.5762342,0.7565046 -4.8050492,1.9853197 -1.1007691,1.1007691 -1.8174891,2.5858504 -1.9565469,4.2295944 -0.027501,-0.03353 -0.065131,-0.07337 -0.086318,-0.08632 -0.062662,-0.03829 -0.1226005,-0.04233 -0.1726365,-0.05754 -0.100072,-0.03043 -0.2142696,-0.06871 -0.345273,-0.08632 -0.2620067,-0.03522 -0.5978084,-0.05755 -0.9782734,-0.05755 -0.3804651,0 -0.7162668,0.02233 -0.9782735,0.05755 -0.1310033,0.0176 -0.2452009,0.05589 -0.3452729,0.08632 -0.050036,0.01521 -0.1099745,0.01925 -0.1726365,0.05754 -0.062662,0.03829 -0.2014093,0.13315 -0.2014093,0.345273 l 0,1.093365 c 0,0.212123 0.1387473,0.306981 0.2014093,0.345273 0.062662,0.03829 0.1226004,0.04233 0.1726365,0.05755 0.100072,0.03043 0.2142696,0.06871 0.3452729,0.08632 0.2620067,0.03522 0.5978084,0.05755 0.9782735,0.05755 0.380465,0 0.7162667,-0.02233 0.9782734,-0.05755 0.1310034,-0.0176 0.245201,-0.05589 0.345273,-0.08632 0.050036,-0.01521 0.1099745,-0.01925 0.1726365,-0.05755 0.034213,-0.02091 0.098481,-0.05373 0.1438637,-0.115091 0.051534,0.346746 0.1283003,0.679486 0.230182,1.007046 0.015206,0.04889 0.041272,0.09545 0.057545,0.143864 0.01823,0.05826 0.037764,0.115059 0.057545,0.172636 0.03808,0.104002 0.07214,0.214951 0.115091,0.3165 0.015829,0.03944 0.040985,0.07601 0.057546,0.115091 0.071497,0.160061 0.118173,0.30714 0.2014092,0.460364 0.015919,0.03078 0.041161,0.05582 0.057545,0.08632 0.09074,0.161237 0.1845422,0.336402 0.2877275,0.489136 0.00725,0.0111 0.021465,0.01771 0.028773,0.02877 0.019407,0.02837 0.037722,0.05826 0.057545,0.08632 0.2210746,0.323613 0.4748727,0.610999 0.7480914,0.891955 1.26202,1.29776 3.0801933,2.504184 5.0533333,2.504184 1.598657,0 3.036377,-0.912679 4.211492,-1.813638 -0.149994,0.149994 -0.132324,0.302661 -0.115091,0.374046 0.01724,0.07138 0.0617,0.126497 0.08632,0.172637 0.04924,0.09228 0.121227,0.182643 0.201409,0.287727 0.160366,0.210167 0.363971,0.479062 0.633001,0.748092 0.269029,0.269029 0.537924,0.501407 0.748091,0.661773 0.105085,0.08019 0.195449,0.123391 0.287728,0.172636 0.04614,0.02462 0.101251,0.06908 0.172636,0.08632 0.07138,0.01724 0.224052,0.0349 0.374046,-0.115091 l 0.776864,-0.776864 c 0.149994,-0.149994 0.132323,-0.30266 0.115091,-0.374045 -0.01724,-0.07138 -0.0617,-0.126497 -0.08632,-0.172637 -0.04924,-0.09228 -0.09245,-0.182643 -0.172637,-0.287727 -0.160366,-0.210168 -0.392744,-0.479063 -0.661773,-0.748092 -0.269029,-0.269029 -0.537924,-0.472634 -0.748091,-0.633 -0.105085,-0.08019 -0.19545,-0.152164 -0.287728,-0.20141 -0.04614,-0.02462 -0.101251,-0.06908 -0.172636,-0.08632 -0.04934,-0.01191 -0.12721,-0.01046 -0.230182,0.02877 0.133815,-0.147968 0.253808,-0.301818 0.374045,-0.460364 0.09057,-0.148931 0.07867,-0.351384 -0.02877,-0.489137 0.492324,-0.761973 0.794943,-1.629932 0.9495,-2.560774 0.01963,0.0045 0.04003,0.02345 0.05755,0.02877 0.100072,0.03043 0.21427,0.06871 0.345273,0.08632 0.262007,0.03522 0.597808,0.05755 0.978273,0.05755 0.380465,0 0.716267,-0.02233 0.978274,-0.05755 0.131003,-0.0176 0.245201,-0.05589 0.345273,-0.08632 0.05003,-0.01521 0.109974,-0.01925 0.172636,-0.05754 0.06266,-0.03829 0.201409,-0.13315 0.201409,-0.345273 l 0,-1.093364 c 0,-0.212123 -0.138747,-0.306981 -0.201409,-0.345273 -0.06266,-0.03829 -0.1226,-0.04234 -0.172636,-0.05755 -0.100072,-0.03043 -0.21427,-0.06871 -0.345273,-0.08632 -0.262007,-0.03522 -0.597809,-0.05755 -0.978274,-0.05755 -0.380465,0 -0.716266,0.02233 -0.978273,0.05755 -0.120729,0.01622 -0.22222,0.0573 -0.3165,0.08632 -0.138617,-1.2620594 -0.647596,-2.4093405 -1.381092,-3.3664115 0.06584,0.012178 0.10817,0.00862 0.143863,0 0.07138,-0.017232 0.126497,-0.061696 0.172637,-0.086318 0.09228,-0.049245 0.182643,-0.092454 0.287727,-0.1726365 0.210168,-0.1603659 0.479062,-0.3927438 0.748092,-0.6617732 0.269029,-0.2690295 0.472634,-0.537924 0.633,-0.7480915 0.08019,-0.1050841 0.152164,-0.1954493 0.201409,-0.2877275 0.02462,-0.04614 0.04031,-0.1012511 0.05755,-0.1726364 0.01724,-0.071385 0.06368,-0.2240523 -0.08632,-0.3740458 L 18.90546,4.0577672 c -0.149994,-0.1499935 -0.302661,-0.132323 -0.374046,-0.115091 -0.07138,0.017232 -0.126497,0.061696 -0.172637,0.086318 -0.09228,0.049245 -0.211415,0.1212266 -0.3165,0.2014092 -0.210167,0.1603659 -0.450289,0.363971 -0.719319,0.6330005 -0.269029,0.2690294 -0.501407,0.5379239 -0.661773,0.7480914 -0.08019,0.1050842 -0.123391,0.1954493 -0.172636,0.2877275 -0.02462,0.046139 -0.06908,0.1012512 -0.08632,0.1726365 -0.0052,0.021415 7.1e-4,0.052539 0,0.086318 C 16.162841,5.9653055 15.889871,5.7997031 15.625366,5.6402684 14.603179,5.0241285 13.424384,4.6619949 12.143864,4.6619949 z M 7.3388148,6.6473146 7.540224,6.4171326 C 7.6902175,6.2671391 7.6437744,6.1144722 7.6265423,6.0430868 7.6093102,5.9717015 7.5648462,5.9165899 7.540224,5.8704504 7.4909791,5.7781722 7.4477702,5.687807 7.3675876,5.5827229 7.2072217,5.3725554 6.9748438,5.1036609 6.7058143,4.8346314 6.4367849,4.565602 6.1966631,4.3619968 5.9864956,4.201631 5.8814115,4.1214484 5.7622736,4.0494667 5.6699954,4.0002217 5.6238559,3.9755995 5.597517,3.9311356 5.5261317,3.9139035 c -0.035693,-0.00862 -0.1036682,-0.00884 -0.1726365,0 -0.068968,0.00884 -0.1551852,0.040094 -0.230182,0.115091 L 4.346449,4.8058587 C 4.1964555,4.9558522 4.2428987,5.1085191 4.260131,5.1799044 c 0.017232,0.071385 0.061696,0.126497 0.086318,0.1726365 0.049245,0.092278 0.092454,0.2114161 0.1726365,0.3165002 0.1603658,0.2101675 0.3927438,0.4502893 0.6617732,0.7193187 0.2690294,0.2690295 0.5091512,0.5014074 0.7193187,0.6617732 0.1050841,0.080183 0.224222,0.1233916 0.3165002,0.1726365 0.04614,0.024622 0.072479,0.069086 0.1438638,0.086318 0.071385,0.017232 0.252825,0.034903 0.4028184,-0.115091 L 7.3388148,6.6473146 z M 6.4756324,16.02723 c -0.071385,0.01724 -0.126497,0.0617 -0.1726365,0.08632 -0.092278,0.04925 -0.2114161,0.121226 -0.3165003,0.201409 -0.2101674,0.160366 -0.4502892,0.363971 -0.7193187,0.633 -0.2690294,0.26903 -0.5014073,0.537925 -0.6617732,0.748092 -0.080183,0.105084 -0.1233915,0.195449 -0.1726365,0.287727 -0.024622,0.04614 -0.069086,0.101252 -0.086318,0.172637 -0.017232,0.07138 -0.034903,0.224052 0.115091,0.374046 l 0.7480914,0.776864 c 0.1499935,0.149994 0.3314332,0.132323 0.4028185,0.115091 0.071385,-0.01724 0.126497,-0.0617 0.1726365,-0.08632 0.092278,-0.04924 0.1826433,-0.09245 0.2877275,-0.172636 0.2101675,-0.160366 0.479062,-0.392744 0.7480914,-0.661773 0.2690295,-0.26903 0.4726346,-0.509152 0.6330005,-0.719319 0.080182,-0.105084 0.1521643,-0.224222 0.2014092,-0.3165 0.024622,-0.04614 0.040313,-0.101252 0.057545,-0.172637 0.017232,-0.07138 0.063676,-0.224051 -0.086318,-0.374045 L 6.8496781,16.142321 C 6.6996846,15.992327 6.5470177,16.009998 6.4756324,16.02723 z m 2.5039806,1.98265 c 0,2.854452 -0.04866,3.55799 0.670352,4.24065 0.788942,0.749054 4.90207,0.771827 5.669586,-7.61e-4 0.750879,-0.755841 0.4737,-2.476062 0.4737,-4.25723 l -6.813638,0.01734 z"
       id="path7926"
       sodipodi:nodetypes="cssssssscccssssssscccscsssssssccssssssscsssssssssssscsssssssccsssssssssccssssssccsssssccsssssssccssssssssscccssssssssccssssssscccssssssccsssssssccccsscc" />
    <rect
       style="fill:#3a3935;fill-opacity:1;stroke:none"
       id="rect7657"
       width="2.6470928"
       height="1.4386374"
       x="2.4762204"
       y="10.973947"
       rx="3.3423133"
       ry="0.17260009" />
    <path
       style="fill:#3a3935;fill-opacity:1;stroke:none"
       d="m 12.356893,5.2190517 c -3.5109807,0 -6.3543456,2.8711131 -6.3543456,6.3820933 0,3.510981 2.8433649,6.354346 6.3543456,6.354346 2.091831,0 4.451587,-1.515552 5.194062,-2.801557 0,0 -1.511326,-0.879634 -1.558261,-3.750072 3e-6,-2.0257978 1.313096,-3.3782058 1.311203,-3.3749278 C 15.435977,5.602336 13.445296,5.2190517 12.356893,5.2190517 z"
       id="path7356"
       sodipodi:nodetypes="csscccc" />
    <path
       transform="matrix(0.80552866,-0.05090045,0.33309036,1.1343219,-1.4163082,-1.6701199)"
       sodipodi:type="arc"
       style="fill:#eae3d0;fill-opacity:1;stroke:none"
       id="path7359-5"
       sodipodi:cx="7.65625"
       sodipodi:cy="15.09375"
       sodipodi:rx="1.53125"
       sodipodi:ry="1.40625"
       d="m 9.1875,15.09375 a 1.53125,1.40625 0 1 1 -3.0625,0 1.53125,1.40625 0 1 1 3.0625,0 z" />
    <path
       transform="matrix(0.2317115,-0.03569794,0.06301311,0.4090114,5.381261,7.964564)"
       sodipodi:type="arc"
       style="fill:#eae3d0;fill-opacity:1;stroke:none"
       id="path7359-2"
       sodipodi:cx="7.65625"
       sodipodi:cy="15.09375"
       sodipodi:rx="1.53125"
       sodipodi:ry="1.40625"
       d="m 9.1875,15.09375 a 1.53125,1.40625 0 1 1 -3.0625,0 1.53125,1.40625 0 1 1 3.0625,0 z" />
    <path
       transform="matrix(0.07560196,-0.03056249,0.06655832,0.16464426,9.5398059,11.647215)"
       sodipodi:type="arc"
       style="fill:#eae3d0;fill-opacity:1;stroke:none"
       id="path7359-8"
       sodipodi:cx="7.65625"
       sodipodi:cy="15.09375"
       sodipodi:rx="1.53125"
       sodipodi:ry="1.40625"
       d="m 9.1875,15.09375 a 1.53125,1.40625 0 1 1 -3.0625,0 1.53125,1.40625 0 1 1 3.0625,0 z" />
    <path
       transform="matrix(0.34805141,-0.5199518,0.59727893,0.22716849,-0.304213,7.8949168)"
       sodipodi:type="arc"
       style="fill:#eae3d0;fill-opacity:1;stroke:none"
       id="path7359-4"
       sodipodi:cx="7.65625"
       sodipodi:cy="15.09375"
       sodipodi:rx="1.53125"
       sodipodi:ry="1.40625"
       d="m 9.1875,15.09375 a 1.53125,1.40625 0 1 1 -3.0625,0 1.53125,1.40625 0 1 1 3.0625,0 z" />
    <path
       transform="matrix(-0.44099836,1.4339535,-1.0763276,-0.24400487,28.714594,2.6361874)"
       sodipodi:type="arc"
       style="fill:#eae3d0;fill-opacity:1;stroke:none"
       id="path7359-56"
       sodipodi:cx="7.65625"
       sodipodi:cy="15.09375"
       sodipodi:rx="1.53125"
       sodipodi:ry="1.40625"
       d="m 9.1875,15.09375 a 1.53125,1.40625 0 1 1 -3.0625,0 1.53125,1.40625 0 1 1 3.0625,0 z" />
    <rect
       style="fill:#3a3935;fill-opacity:1;stroke:none"
       id="rect7657-0"
       width="2.6470928"
       height="1.4386374"
       x="6.8505774"
       y="-0.95078588"
       rx="3.3423133"
       ry="0.17260009"
       transform="matrix(0.70710678,0.70710678,-0.70710678,0.70710678,0,0)" />
    <rect
       style="fill:#3a3935;fill-opacity:1;stroke:none"
       id="rect7657-0-4"
       width="2.6470928"
       height="1.4386374"
       x="1.6418734"
       y="-12.791093"
       rx="3.3423133"
       ry="0.17260009"
       transform="matrix(0,1,-1,0,0,0)" />
    <rect
       style="fill:#3a3935;fill-opacity:1;stroke:none"
       id="rect7657-0-6"
       width="2.6470928"
       height="1.4386374"
       x="7.481966"
       y="16.063971"
       rx="3.3423133"
       ry="0.17260009"
       transform="matrix(0.70710678,-0.70710678,0.70710678,0.70710678,0,0)" />
    <rect
       style="fill:#3a3935;fill-opacity:1;stroke:none"
       id="rect7657-0-0"
       width="2.6470928"
       height="1.4386374"
       x="18.88641"
       y="10.946954"
       rx="3.3423133"
       ry="0.17260009" />
    <rect
       style="fill:#3a3935;fill-opacity:1;stroke:none"
       id="rect7657-0-8"
       width="2.6470928"
       height="1.4386374"
       x="-26.738235"
       y="-0.41279015"
       rx="3.3423133"
       ry="0.17260009"
       transform="matrix(-0.70710678,-0.70710678,0.70710678,-0.70710678,0,0)" />
    <path
       style="fill:#3a3935;fill-opacity:1;stroke:none"
       d="m 9.6829134,20.753986 c 0,-0.733245 -0.09979,-2.494693 -0.00418,-2.494693 0,0 1.3184246,0.665411 2.8116726,0.662912 1.332012,-0.0023 2.723282,-0.662912 2.723282,-0.662912 0.09562,0 0.04002,1.916127 0.04002,2.649372 0,0.733244 -0.717466,1.039968 -1.255358,1.323546 -0.472012,0.248847 -1.047234,0.26394 -1.580706,0.252681 -0.533175,-0.01125 -1.110463,-0.0446 -1.567761,-0.318972 -0.52358,-0.31414 -1.1669709,-0.67869 -1.1669709,-1.411934 z"
       id="rect7657-0-4-8"
       sodipodi:nodetypes="ccscsaaac" />
    <rect
       style="fill:#3a3935;fill-opacity:1;stroke:none"
       id="rect7657-0-6-9"
       width="2.6470928"
       height="1.4386374"
       x="6.9439716"
       y="-17.524841"
       rx="3.3423133"
       ry="0.17260009"
       transform="matrix(-0.70710678,0.70710678,-0.70710678,-0.70710678,0,0)" />
  </g>
</svg>
